<svg xmlns="http://www.w3.org/2000/svg" viewBox="0 0 400 520" fill="none" aria-hidden="true">
  <style>
    .map-pin { animation: pinPulse 4s ease-in-out infinite; }
    .map-pin:nth-child(2) { animation-delay: 0.5s; }
    .map-pin:nth-child(3) { animation-delay: 1s; }
    .map-pin:nth-child(4) { animation-delay: 1.5s; }
    @keyframes pinPulse {
      0%, 100% { opacity: 0.55; }
      50% { opacity: 1; }
    }
    .map-label {
      fill: rgba(255,255,255,0.45);
      font-family: "DM Sans", system-ui, sans-serif;
      font-size: 10px;
      font-weight: 500;
    }
  </style>
  <defs>
    <linearGradient id="tasMapGrad" x1="0%" y1="0%" x2="100%" y2="100%">
      <stop offset="0%" stop-color="#B7A58A" stop-opacity="0.35"/>
      <stop offset="100%" stop-color="#DCC9AD" stop-opacity="0.08"/>
    </linearGradient>
    <filter id="mapGlow" x="-20%" y="-20%" width="140%" height="140%">
      <feGaussianBlur stdDeviation="2" result="blur"/>
      <feMerge><feMergeNode in="blur"/><feMergeNode in="SourceGraphic"/></feMerge>
    </filter>
  </defs>
  <g class="map-islands">
    <path class="map-outline" d="M100.4,193.4 L92.9,192.3 L88.6,186.8 L88.9,177.8 L96.9,168.2 L94.3,150.7 L98.0,141.4 L101.3,154.0 L102.8,149.6 L113.9,156.5 L118.3,153.9 L129.7,165.7 L133.4,163.3 L128.8,160.2 L140.7,161.7 L140.8,150.1 L144.7,156.5 L141.5,162.3 L145.7,167.1 L151.4,167.1 L154.8,172.6 L160.9,167.6 L164.8,175.4 L178.3,178.9 L179.3,183.9 L175.7,182.6 L186.9,192.8 L190.2,190.3 L193.9,195.4 L196.6,193.5 L209.6,200.4 L212.2,205.8 L219.9,205.2 L220.1,210.1 L220.4,204.5 L226.6,205.1 L225.3,208.4 L228.5,205.3 L227.8,212.6 L231.1,215.2 L229.6,206.4 L242.6,200.4 L245.2,216.8 L246.8,211.1 L248.5,217.8 L248.8,205.3 L245.2,203.8 L256.6,193.6 L261.5,195.5 L265.6,202.8 L261.7,206.2 L265.4,203.7 L267.1,210.5 L266.7,205.9 L273.9,206.7 L271.8,210.8 L278.0,216.9 L277.7,224.0 L282.7,229.8 L286.1,227.9 L289.7,240.6 L292.5,237.4 L290.2,239.2 L285.9,226.6 L278.3,223.9 L281.2,219.9 L273.0,212.0 L277.2,209.2 L265.4,200.8 L262.9,192.4 L270.0,188.0 L276.7,189.1 L281.7,183.3 L292.6,189.6 L300.0,180.0 L307.6,178.2 L308.4,183.5 L314.8,187.2 L311.8,186.1 L319.3,183.2 L327.6,167.0 L333.6,163.6 L340.2,170.4 L352.3,170.6 L355.1,153.5 L358.0,153.2 L374.0,164.6 L369.2,162.7 L370.1,165.4 L374.3,163.5 L377.8,166.7 L388.0,184.8 L383.7,193.4 L383.5,189.3 L380.0,192.0 L383.9,193.6 L380.2,209.4 L387.1,217.9 L378.9,225.7 L381.7,227.8 L388.5,219.6 L382.3,231.7 L381.7,247.9 L379.9,245.9 L385.3,257.0 L381.2,285.7 L385.9,299.3 L382.8,314.4 L387.2,322.2 L383.8,330.1 L388.6,331.9 L387.7,337.2 L383.4,344.4 L380.1,338.0 L383.9,325.1 L377.7,318.0 L372.6,318.7 L379.5,308.1 L375.8,312.1 L373.1,309.3 L370.7,315.0 L373.2,315.9 L367.4,319.5 L378.8,321.6 L363.7,324.2 L366.7,330.3 L360.0,347.9 L354.5,352.1 L357.0,353.8 L361.5,348.5 L358.2,364.1 L360.8,364.2 L360.8,372.7 L355.9,378.0 L353.9,371.0 L350.0,378.2 L355.6,384.6 L355.7,399.7 L350.3,404.8 L350.7,414.2 L349.2,410.4 L343.2,421.3 L333.5,421.2 L331.2,418.4 L334.7,416.3 L328.5,417.1 L326.8,405.9 L327.4,408.7 L323.1,405.0 L322.2,409.2 L314.8,405.4 L318.5,411.9 L329.1,414.3 L320.3,416.5 L324.3,431.6 L313.5,439.6 L311.4,430.3 L317.5,436.6 L318.3,421.7 L312.7,425.8 L301.0,399.9 L300.5,403.2 L295.9,399.3 L289.2,405.2 L295.9,401.2 L302.7,407.3 L300.5,410.4 L305.8,412.5 L307.5,439.7 L301.2,436.0 L300.4,442.4 L304.1,444.2 L299.7,448.5 L300.9,461.0 L299.4,466.5 L293.4,468.4 L292.1,463.2 L287.1,463.4 L289.4,459.4 L286.6,453.5 L285.0,461.2 L278.8,456.8 L282.4,440.6 L276.0,453.6 L288.0,469.3 L285.2,474.5 L278.6,474.2 L284.7,477.0 L281.4,488.2 L276.0,488.7 L273.9,484.8 L273.3,488.7 L280.1,492.7 L275.4,492.5 L275.5,496.7 L278.2,494.5 L273.4,501.0 L272.0,497.2 L270.2,502.4 L273.7,507.6 L269.7,512.4 L262.8,507.7 L256.4,511.8 L247.9,502.9 L244.8,490.9 L247.7,500.6 L227.6,496.8 L223.2,500.8 L221.8,495.0 L217.3,493.5 L216.8,499.6 L211.8,495.4 L208.8,502.3 L206.4,500.3 L202.5,504.0 L199.8,483.7 L193.7,480.5 L198.2,477.4 L199.5,482.1 L198.9,474.1 L206.7,479.3 L204.7,476.0 L210.4,477.3 L211.6,483.9 L212.4,478.3 L217.9,481.5 L218.5,473.3 L214.1,473.8 L213.5,469.4 L208.9,476.5 L205.2,469.2 L204.7,474.6 L200.3,474.9 L196.3,468.1 L198.4,462.4 L193.4,459.5 L194.3,463.7 L189.0,467.1 L193.9,466.4 L194.1,470.5 L187.3,472.4 L178.9,447.8 L173.2,445.2 L174.6,439.6 L167.3,429.9 L159.6,432.3 L149.3,390.8 L141.0,386.5 L144.4,380.2 L140.2,374.2 L133.2,333.9 L156.3,359.6 L157.9,374.6 L156.6,363.4 L169.5,364.7 L161.0,363.3 L164.6,353.7 L161.0,355.9 L159.5,349.4 L158.5,354.6 L149.2,340.7 L146.7,328.3 L141.5,334.6 L143.2,337.7 L137.9,336.6 L141.1,323.4 L136.3,301.7 L112.9,271.3 L124.0,260.2 L113.7,268.4 L99.7,237.9 L103.2,234.6 L94.7,214.8 L92.7,192.8 L100.4,193.4 Z" stroke="#B7A58A" stroke-width="1.5" fill="url(#tasMapGrad)"/>
    <path class="map-outline map-outline--island" d="M360.9,460.8 L351.7,457.0 L349.1,446.7 L347.6,452.4 L349.6,452.1 L348.2,455.6 L350.0,458.9 L347.6,456.6 L342.8,462.8 L342.1,459.7 L336.9,457.4 L334.8,450.5 L338.5,448.8 L337.3,446.4 L339.8,447.2 L339.4,445.1 L334.7,446.0 L330.2,442.4 L329.5,434.2 L334.3,432.3 L334.3,425.2 L336.4,428.0 L338.0,427.1 L337.5,436.8 L339.2,435.1 L341.9,440.1 L347.3,440.8 L347.6,437.1 L348.8,440.4 L349.8,436.2 L354.0,435.3 L347.7,435.0 L348.5,431.2 L344.9,428.7 L349.3,426.8 L345.2,425.6 L344.2,420.1 L350.1,419.5 L352.6,422.0 L352.3,418.8 L348.9,417.9 L351.3,413.8 L353.6,413.9 L355.2,418.1 L357.7,416.5 L356.6,418.7 L359.9,422.8 L360.0,428.9 L354.1,436.0 L358.5,446.6 L356.3,450.2 L360.5,450.6 L357.1,457.1 L360.9,460.8 Z" stroke="#B7A58A" stroke-width="1" fill="url(#tasMapGrad)" opacity="0.85"/><path class="map-outline map-outline--island" d="M296.2,487.4 L294.6,493.9 L291.7,494.8 L287.8,484.4 L292.8,490.8 L294.4,490.1 L294.3,477.0 L297.0,480.7 L303.3,463.3 L304.5,470.1 L308.6,465.0 L307.3,460.5 L310.7,459.0 L310.3,455.1 L306.5,456.3 L307.4,454.4 L304.0,455.7 L302.1,454.0 L304.8,450.0 L306.3,452.2 L308.5,450.8 L308.9,447.4 L306.3,449.6 L304.5,447.4 L308.1,441.2 L314.7,462.0 L314.4,464.6 L310.4,464.4 L305.8,471.0 L306.8,478.9 L309.4,476.7 L310.6,479.4 L307.0,485.7 L305.9,495.6 L303.6,497.2 L299.7,494.3 L299.7,487.9 L296.2,487.4 Z" stroke="#B7A58A" stroke-width="1" fill="url(#tasMapGrad)" opacity="0.85"/><path class="map-outline map-outline--island" d="M386.7,87.7 L382.7,90.6 L380.7,87.9 L376.8,88.0 L374.8,92.8 L369.8,95.8 L363.7,92.8 L360.6,75.0 L357.1,71.2 L356.3,74.2 L354.7,66.2 L348.7,64.8 L352.5,59.0 L350.4,50.4 L347.8,49.3 L344.4,51.6 L339.9,46.3 L344.3,41.5 L347.5,41.7 L349.6,35.5 L347.8,31.0 L350.7,32.4 L355.3,27.2 L357.1,28.1 L357.3,33.8 L357.4,32.1 L359.3,34.6 L356.9,28.5 L374.2,56.0 L383.3,57.6 L382.9,70.3 L377.9,76.9 L382.3,76.3 L383.0,71.9 L386.7,87.7 Z" stroke="#B7A58A" stroke-width="1" fill="url(#tasMapGrad)" opacity="0.85"/>
  </g>
  <g class="map-pins" filter="url(#mapGlow)">
    <circle class="map-pin" cx="306.2" cy="418.7" r="4.5" fill="#B7A58A"/><circle class="map-pin" cx="290.8" cy="239.3" r="4.5" fill="#B7A58A"/><circle class="map-pin" cx="228.1" cy="207.8" r="4.5" fill="#B7A58A"/><circle class="map-pin" cx="192.5" cy="192.2" r="4.5" fill="#B7A58A"/>
  </g>
  <g class="map-labels">
    <text x="314.2" y="421.7" class="map-label">Hobart</text><text x="298.8" y="242.3" class="map-label">Launceston</text><text x="236.1" y="210.8" class="map-label">Devonport</text><text x="200.5" y="195.2" class="map-label">Burnie</text>
  </g>
</svg>